<svg width="18" height="21" viewBox="0 0 18 21" fill="none" xmlns="http://www.w3.org/2000/svg">
<path d="M13 21H9C8.71667 21 8.47917 20.9042 8.2875 20.7125C8.09583 20.5208 8 20.2833 8 20V14C8 13.7167 8.09583 13.4792 8.2875 13.2875C8.47917 13.0958 8.71667 13 9 13H10V10H2C1.45 10 0.979167 9.80417 0.5875 9.4125C0.195833 9.02083 0 8.55 0 8V4C0 3.45 0.195833 2.97917 0.5875 2.5875C0.979167 2.19583 1.45 2 2 2H4V1C4 0.716667 4.09583 0.479167 4.2875 0.2875C4.47917 0.0958333 4.71667 0 5 0H17C17.2833 0 17.5208 0.0958333 17.7125 0.2875C17.9042 0.479167 18 0.716667 18 1V5C18 5.28333 17.9042 5.52083 17.7125 5.7125C17.5208 5.90417 17.2833 6 17 6H5C4.71667 6 4.47917 5.90417 4.2875 5.7125C4.09583 5.52083 4 5.28333 4 5V4H2V8H10C10.55 8 11.0208 8.19583 11.4125 8.5875C11.8042 8.97917 12 9.45 12 10V13H13C13.2833 13 13.5208 13.0958 13.7125 13.2875C13.9042 13.4792 14 13.7167 14 14V20C14 20.2833 13.9042 20.5208 13.7125 20.7125C13.5208 20.9042 13.2833 21 13 21ZM10 19H12V15H10V19ZM6 4H16V2H6V4Z" fill="black"/>
</svg>
