<svg width="54" height="97" viewBox="0 0 54 97" fill="none" xmlns="http://www.w3.org/2000/svg">
<path d="M9.80908 5C9.80908 2.23858 12.0477 0 14.8091 0H38.5957C41.3571 0 43.5957 2.23858 43.5957 5V23.6143H9.80908V5Z" fill="white"/>
<path d="M9.80908 65.0303H43.5957V96.0922L26.7024 80.4704L9.80908 96.0922V65.0303Z" fill="white"/>
<path d="M26.7021 17.8015C41.4494 17.8015 53.4042 29.7565 53.4043 44.5037C53.4043 59.251 41.4494 71.2058 26.7021 71.2058C11.9549 71.2057 0 59.2509 0 44.5037C0.000108234 29.7565 11.955 17.8016 26.7021 17.8015ZM26.5205 25.7937C16.0871 25.7937 7.62903 34.252 7.62891 44.6853C7.62891 55.1187 16.0871 63.5769 26.5205 63.5769C36.954 63.5769 45.4121 55.1188 45.4121 44.6853C45.412 34.2519 36.9539 25.7937 26.5205 25.7937Z" fill="white"/>
</svg>
