<svg width="46" height="10" viewBox="0 0 46 10" fill="none" xmlns="http://www.w3.org/2000/svg">
<path d="M37.302 4.9376C37.302 6.55609 38.6141 7.86813 40.2325 7.86813C41.851 7.86813 43.1631 6.55609 43.1631 4.9376C43.1631 3.31912 41.851 2.00708 40.2325 2.00708C38.6141 2.00708 37.302 3.31912 37.302 4.9376Z" stroke="white" stroke-width="4" stroke-linecap="round" stroke-linejoin="round"/>
<path d="M19.7189 4.9376C19.7189 6.55609 21.0309 7.86813 22.6494 7.86813C24.2679 7.86813 25.5799 6.55609 25.5799 4.9376C25.5799 3.31912 24.2679 2.00708 22.6494 2.00708C21.0309 2.00708 19.7189 3.31912 19.7189 4.9376Z" stroke="white" stroke-width="4" stroke-linecap="round" stroke-linejoin="round"/>
<path d="M2.13574 4.9376C2.13574 6.55609 3.44778 7.86813 5.06626 7.86813C6.68475 7.86813 7.99679 6.55609 7.99679 4.9376C7.99679 3.31912 6.68475 2.00708 5.06626 2.00708C3.44778 2.00708 2.13574 3.31912 2.13574 4.9376Z" stroke="white" stroke-width="4" stroke-linecap="round" stroke-linejoin="round"/>
</svg>
