<svg width="45" height="50" viewBox="0 0 45 50" fill="none" xmlns="http://www.w3.org/2000/svg">
<path d="M27.625 19.8889V37.7778M17.375 19.8889V37.7778M7.125 9.66667V39.8222C7.125 42.6847 7.125 44.115 7.68359 45.2083C8.17494 46.17 8.9584 46.9535 9.92273 47.4435C11.018 48 12.4524 48 15.3171 48H29.6829C32.5476 48 33.98 48 35.0752 47.4435C36.0395 46.9535 36.8256 46.17 37.317 45.2083C37.875 44.116 37.875 42.687 37.875 39.8301V9.66667M7.125 9.66667H12.25M7.125 9.66667H2M12.25 9.66667H32.75M12.25 9.66667C12.25 7.28519 12.25 6.09504 12.6401 5.15576C13.1603 3.9034 14.1573 2.90781 15.4131 2.38906C16.3549 2 17.5495 2 19.9375 2H25.0625C27.4504 2 28.6444 2 29.5863 2.38906C30.842 2.90781 31.8395 3.9034 32.3596 5.15576C32.7497 6.09503 32.75 7.28519 32.75 9.66667M32.75 9.66667H37.875M37.875 9.66667H43" stroke="white" stroke-width="4" stroke-linecap="round" stroke-linejoin="round"/>
</svg>
