<svg width="339" height="240" viewBox="0 0 339 240" fill="none" xmlns="http://www.w3.org/2000/svg">
<mask id="mask0_19_305" style="mask-type:luminance" maskUnits="userSpaceOnUse" x="97" y="0" width="242" height="240">
<path d="M339 0H97V240H339V0Z" fill="white"/>
</mask>
<g mask="url(#mask0_19_305)">
<path d="M125.739 115.128C121.778 115.128 118.185 114.213 114.958 112.378C111.747 110.526 109.185 108.049 107.271 104.94C105.372 101.815 104.427 98.276 104.427 94.3151C104.427 91.3776 105.067 88.6197 106.364 86.0338C107.677 83.4557 109.435 81.2213 111.646 79.3463C109.497 77.5338 107.802 75.3932 106.552 72.9088C105.317 70.4322 104.708 67.8151 104.708 65.0651C104.708 61.1901 105.646 57.7369 107.521 54.69C109.411 51.6275 111.935 49.2135 115.083 47.44C118.224 45.6744 121.708 44.7838 125.521 44.7838H155.177V58.8463H128.146C126.872 58.8463 125.692 59.151 124.614 59.7526C123.552 60.3619 122.692 61.1588 122.052 62.1588C121.427 63.1588 121.114 64.3385 121.114 65.6901C121.114 66.9635 121.427 68.1197 122.052 69.1588C122.692 70.2057 123.552 71.0026 124.614 71.5651C125.692 72.1276 126.872 72.4088 128.146 72.4088H151.771V86.4713H128.646C127.224 86.4713 125.942 86.8151 124.802 87.5026C123.677 88.1744 122.778 89.0494 122.114 90.1276C121.442 91.1901 121.114 92.4244 121.114 93.8151C121.114 95.1744 121.442 96.401 122.114 97.5026C122.778 98.6119 123.677 99.4635 124.802 100.065C125.942 100.674 127.224 100.971 128.646 100.971H155.177V115.128H125.739Z" fill="white"/>
<path d="M150.842 115.128L173.655 52.9088C174.795 49.8307 176.67 47.5025 179.28 45.94C181.905 44.3619 184.85 43.565 188.124 43.565C191.413 43.565 194.358 44.3307 196.967 45.8463C199.592 47.3463 201.467 49.6744 202.592 52.815L225.499 115.128H207.311L202.905 101.565H173.061L168.436 115.128H150.842ZM177.374 87.5963H198.592L189.624 59.565C189.499 59.151 189.311 58.8619 189.061 58.69C188.827 58.526 188.545 58.44 188.217 58.44C187.881 58.44 187.6 58.5494 187.374 58.7525C187.139 58.94 186.999 59.2135 186.936 59.565L177.374 87.5963Z" fill="white"/>
<path d="M223.792 115.128V101.065H253.855C255.183 101.065 256.386 100.737 257.449 100.065C258.527 99.3775 259.386 98.5025 260.011 97.44C260.652 96.3775 260.98 95.2057 260.98 93.9088C260.98 92.5807 260.652 91.3775 260.011 90.315C259.386 89.2369 258.527 88.3619 257.449 87.69C256.386 87.026 255.183 86.69 253.855 86.69H242.98C238.894 86.69 235.175 85.8932 231.824 84.2838C228.488 82.6822 225.832 80.315 223.855 77.19C221.871 74.065 220.886 70.3307 220.886 65.9713C220.886 61.7057 221.824 57.9947 223.699 54.8463C225.574 51.6822 228.113 49.2135 231.324 47.44C234.55 45.6744 238.105 44.7838 241.98 44.7838H273.042V58.8463H243.886C242.675 58.8463 241.574 59.151 240.574 59.7525C239.574 60.3619 238.8 61.1588 238.261 62.1588C237.714 63.1588 237.449 64.2682 237.449 65.4713C237.449 66.6822 237.714 67.776 238.261 68.7525C238.8 69.7135 239.574 70.4947 240.574 71.0963C241.574 71.7057 242.675 72.0025 243.886 72.0025H255.261C259.738 72.0025 263.636 72.8619 266.949 74.565C270.277 76.276 272.863 78.6588 274.699 81.7213C276.527 84.7682 277.449 88.3307 277.449 92.4088C277.449 97.2447 276.488 101.362 274.574 104.753C272.675 108.128 270.113 110.706 266.886 112.471C263.675 114.245 260.136 115.128 256.261 115.128H223.792Z" fill="white"/>
<mask id="mask1_19_305" style="mask-type:luminance" maskUnits="userSpaceOnUse" x="277" y="44" width="62" height="72">
<path d="M277 44H338.922V116H277V44Z" fill="white"/>
</mask>
<g mask="url(#mask1_19_305)">
<path d="M299.458 115.128V95.94C295.161 94.94 291.427 93.1822 288.239 90.6588C285.067 88.1432 282.614 84.9557 280.864 81.0963C279.13 77.2447 278.271 72.8072 278.271 67.7838V44.7838H294.739V68.69C294.739 71.2369 295.271 73.565 296.333 75.69C297.411 77.7994 298.942 79.4713 300.927 80.7213C302.903 81.9557 305.224 82.565 307.896 82.565C310.583 82.565 312.911 81.9557 314.896 80.7213C316.872 79.4713 318.396 77.7994 319.458 75.69C320.536 73.565 321.083 71.2369 321.083 68.69V44.7838H337.552V67.7838C337.552 72.8072 336.677 77.2447 334.927 81.0963C333.192 84.9557 330.716 88.1588 327.489 90.7213C324.278 93.2682 320.528 95.0025 316.239 95.94V115.128H299.458Z" fill="white"/>
</g>
<path d="M138.502 194.657C132.729 194.657 127.533 193.775 122.908 192.001C118.283 190.236 114.354 187.743 111.127 184.532C107.916 181.306 105.439 177.564 103.689 173.314C101.955 169.048 101.096 164.431 101.096 159.47C101.096 154.517 101.955 149.907 103.689 145.657C105.439 141.407 107.939 137.681 111.189 134.47C114.439 131.243 118.354 128.743 122.939 126.97C127.541 125.204 132.729 124.314 138.502 124.314H149.346V138.376H138.877C135.729 138.376 132.861 138.923 130.283 140.001C127.721 141.064 125.51 142.556 123.658 144.47C121.822 146.368 120.416 148.595 119.439 151.157C118.479 153.704 118.002 156.47 118.002 159.47C118.002 162.493 118.479 165.282 119.439 167.845C120.416 170.392 121.822 172.618 123.658 174.532C125.51 176.431 127.721 177.923 130.283 179.001C132.861 180.064 135.729 180.595 138.877 180.595H149.346V194.657H138.502Z" fill="white"/>
<path d="M177.69 194.657C173.729 194.657 170.136 193.743 166.909 191.907C163.698 190.056 161.136 187.579 159.222 184.47C157.323 181.345 156.378 177.806 156.378 173.845C156.378 170.907 157.019 168.15 158.315 165.564C159.628 162.986 161.386 160.751 163.597 158.876C161.448 157.064 159.753 154.923 158.503 152.439C157.269 149.962 156.659 147.345 156.659 144.595C156.659 140.72 157.597 137.267 159.472 134.22C161.362 131.157 163.886 128.743 167.034 126.97C170.175 125.204 173.659 124.314 177.472 124.314H207.128V138.376H180.097C178.823 138.376 177.644 138.681 176.565 139.282C175.503 139.892 174.644 140.689 174.003 141.689C173.378 142.689 173.065 143.868 173.065 145.22C173.065 146.493 173.378 147.65 174.003 148.689C174.644 149.736 175.503 150.532 176.565 151.095C177.644 151.657 178.823 151.939 180.097 151.939H203.722V166.001H180.597C179.175 166.001 177.894 166.345 176.753 167.032C175.628 167.704 174.729 168.579 174.065 169.657C173.394 170.72 173.065 171.954 173.065 173.345C173.065 174.704 173.394 175.931 174.065 177.032C174.729 178.142 175.628 178.993 176.753 179.595C177.894 180.204 179.175 180.501 180.597 180.501H207.128V194.657H177.69Z" fill="white"/>
<path d="M217.16 194.657V124.314H249.316C254.082 124.314 258.425 125.361 262.347 127.439C266.261 129.501 269.378 132.376 271.691 136.064C274.003 139.751 275.16 144.017 275.16 148.845C275.16 153.329 274.082 157.361 271.941 160.939C269.792 164.525 266.98 167.423 263.503 169.626L269.128 179.189C269.457 179.65 269.847 180.017 270.285 180.282C270.722 180.556 271.3 180.689 272.035 180.689H278.285V194.657H268.41C265.41 194.657 262.667 193.939 260.191 192.501C257.707 191.064 255.761 189.173 254.347 186.814L246.816 173.439C246.332 173.439 245.847 173.439 245.347 173.439C244.847 173.439 244.324 173.439 243.785 173.439H234.035V194.657H217.16ZM234.035 159.47H247.41C249.347 159.47 251.144 159.056 252.816 158.22C254.503 157.392 255.832 156.189 256.816 154.626C257.792 153.048 258.285 151.15 258.285 148.939C258.285 146.736 257.769 144.837 256.753 143.251C255.753 141.673 254.425 140.462 252.785 139.626C251.136 138.798 249.347 138.376 247.41 138.376H234.035V159.47Z" fill="white"/>
<path d="M322.079 194.657C317.782 194.657 314.017 193.712 310.767 191.814C307.517 189.9 304.962 187.337 303.11 184.126C301.274 180.9 300.36 177.306 300.36 173.345V138.376H281.267V124.314H336.235V138.376H317.267V174.845C317.267 176.392 317.798 177.736 318.86 178.876C319.923 180.025 321.267 180.595 322.892 180.595H328.423V194.657H322.079Z" fill="white"/>
</g>
<path d="M15.9072 44.015C15.9072 41.2536 18.1458 39.015 20.9072 39.015H65.6988C68.4602 39.015 70.6988 41.2536 70.6988 44.015V77.3102H15.9072V44.015Z" fill="white"/>
<path d="M15.9072 144.474H70.6988V194.847L43.303 169.513L15.9072 194.847V144.474Z" fill="white"/>
<path d="M43.3027 67.8837C67.2182 67.8837 86.6063 87.271 86.6064 111.186C86.6064 135.102 67.2183 154.49 43.3027 154.49C19.3873 154.49 0 135.102 0 111.186C0.000152559 87.2711 19.3874 67.8839 43.3027 67.8837ZM43.0088 80.8456C26.0889 80.8456 12.3721 94.5615 12.3721 111.481C12.3721 128.401 26.0889 142.117 43.0088 142.117C59.9284 142.117 73.6445 128.401 73.6445 111.481C73.6445 94.5617 59.9285 80.8459 43.0088 80.8456Z" fill="white"/>
</svg>
