<svg width="378" height="97" viewBox="0 0 378 97" fill="none" xmlns="http://www.w3.org/2000/svg">
<mask id="mask0_126_202" style="mask-type:luminance" maskUnits="userSpaceOnUse" x="57" y="2" width="321" height="84">
<path d="M378 2.45728H57.3474V85.7036H378V2.45728Z" fill="white"/>
</mask>
<g mask="url(#mask0_126_202)">
<path d="M83.439 65.0847C80.9965 65.0847 78.7805 64.5211 76.7909 63.389C74.8109 62.2472 73.2307 60.7201 72.0504 58.8027C70.8798 56.8757 70.2969 54.6934 70.2969 52.2509C70.2969 50.4396 70.6919 48.739 71.4916 47.1444C72.301 45.5546 73.3849 44.1768 74.7482 43.0206C73.4234 41.903 72.378 40.583 71.6072 39.051C70.8461 37.5238 70.4703 35.91 70.4703 34.2142C70.4703 31.8248 71.0484 29.6954 72.2046 27.8166C73.3704 25.9281 74.9265 24.4395 76.8679 23.346C78.8046 22.2572 80.9532 21.708 83.3041 21.708H101.591V30.3795H84.9228C84.1375 30.3795 83.4101 30.5674 82.7453 30.9383C82.0901 31.3141 81.5602 31.8055 81.1651 32.4221C80.7797 33.0388 80.587 33.7662 80.587 34.5996C80.587 35.3849 80.7797 36.0979 81.1651 36.7386C81.5602 37.3841 82.0901 37.8755 82.7453 38.2224C83.4101 38.5692 84.1375 38.7427 84.9228 38.7427H99.4909V47.4142H85.2311C84.3543 47.4142 83.5643 47.6261 82.8609 48.0501C82.1672 48.4644 81.6132 49.0039 81.2037 49.6688C80.7894 50.3239 80.587 51.0851 80.587 51.9426C80.587 52.7809 80.7894 53.5372 81.2037 54.2165C81.6132 54.9006 82.1672 55.4257 82.8609 55.7966C83.5643 56.1724 84.3543 56.3554 85.2311 56.3554H101.591V65.0847H83.439Z" fill="white"/>
<path d="M98.9185 65.0848L112.986 26.7183C113.689 24.8202 114.845 23.3846 116.454 22.4211C118.073 21.4479 119.889 20.9565 121.908 20.9565C123.936 20.9565 125.752 21.4287 127.361 22.3633C128.98 23.2882 130.136 24.7238 130.83 26.6605L144.954 65.0848H133.739L131.022 56.7216H112.619L109.767 65.0848H98.9185ZM115.279 48.1079H128.363L122.833 30.8228C122.755 30.5674 122.64 30.3892 122.486 30.2832C122.341 30.182 122.168 30.1291 121.965 30.1291C121.758 30.1291 121.585 30.1965 121.445 30.3218C121.301 30.4374 121.214 30.606 121.175 30.8228L115.279 48.1079Z" fill="white"/>
<path d="M143.902 65.0847V56.4133H162.44C163.259 56.4133 164.001 56.2109 164.656 55.7966C165.321 55.3727 165.851 54.8331 166.236 54.1779C166.631 53.5228 166.834 52.8001 166.834 52.0004C166.834 51.1815 166.631 50.4396 166.236 49.7844C165.851 49.1196 165.321 48.58 164.656 48.1657C164.001 47.7562 163.259 47.5491 162.44 47.5491H155.734C153.215 47.5491 150.922 47.0577 148.855 46.0653C146.798 45.0777 145.16 43.618 143.941 41.691C142.717 39.764 142.11 37.4612 142.11 34.7731C142.11 32.1427 142.688 29.8544 143.845 27.9129C145.001 25.9619 146.567 24.4395 148.547 23.346C150.536 22.2572 152.728 21.708 155.118 21.708H174.272V30.3795H156.293C155.546 30.3795 154.867 30.5674 154.25 30.9383C153.634 31.3141 153.157 31.8055 152.824 32.4221C152.487 33.0388 152.323 33.7228 152.323 34.4647C152.323 35.2115 152.487 35.8859 152.824 36.4881C153.157 37.0806 153.634 37.5624 154.25 37.9333C154.867 38.3091 155.546 38.4922 156.293 38.4922H163.307C166.068 38.4922 168.472 39.0221 170.514 40.0723C172.567 41.1273 174.161 42.5967 175.293 44.4851C176.421 46.364 176.989 48.5607 176.989 51.0755C176.989 54.0575 176.396 56.5963 175.216 58.6871C174.046 60.7683 172.465 62.358 170.476 63.4468C168.496 64.5404 166.313 65.0847 163.924 65.0847H143.902Z" fill="white"/>
<mask id="mask1_126_202" style="mask-type:luminance" maskUnits="userSpaceOnUse" x="176" y="21" width="39" height="45">
<path d="M176.712 21.2247H214.896V65.6228H176.712V21.2247Z" fill="white"/>
</mask>
<g mask="url(#mask1_126_202)">
<path d="M190.561 65.0847V53.253C187.911 52.6363 185.608 51.5524 183.643 49.9963C181.687 48.4451 180.174 46.4796 179.095 44.0997C178.026 41.7247 177.496 38.9884 177.496 35.8907V21.708H187.651V36.4495C187.651 38.0201 187.978 39.4557 188.634 40.766C189.298 42.0667 190.243 43.0977 191.466 43.8685C192.685 44.6297 194.116 45.0054 195.764 45.0054C197.421 45.0054 198.856 44.6297 200.08 43.8685C201.299 43.0977 202.238 42.0667 202.893 40.766C203.558 39.4557 203.895 38.0201 203.895 36.4495V21.708H214.051V35.8907C214.051 38.9884 213.511 41.7247 212.432 44.0997C211.363 46.4796 209.835 48.4547 207.846 50.0349C205.866 51.6054 203.553 52.6749 200.909 53.253V65.0847H190.561Z" fill="white"/>
</g>
<path d="M238.627 64.6015C235.067 64.6015 231.863 64.0571 229.011 62.9635C226.16 61.8748 223.736 60.338 221.747 58.358C219.767 56.3684 218.24 54.0608 217.16 51.4401C216.091 48.8097 215.561 45.9626 215.561 42.9035C215.561 39.8492 216.091 37.0069 217.16 34.3861C218.24 31.7654 219.781 29.4675 221.785 27.4875C223.789 25.4979 226.203 23.9563 229.031 22.8627C231.868 21.7739 235.067 21.2247 238.627 21.2247H245.314V29.8962H238.858C236.917 29.8962 235.149 30.2334 233.559 30.8983C231.979 31.5534 230.616 32.4736 229.474 33.6539C228.342 34.8245 227.475 36.1975 226.873 37.7776C226.28 39.3482 225.986 41.0535 225.986 42.9035C225.986 44.7678 226.28 46.4877 226.873 48.0678C227.475 49.6383 228.342 51.0113 229.474 52.1916C230.616 53.3623 231.979 54.2824 233.559 54.9472C235.149 55.6024 236.917 55.93 238.858 55.93H245.314V64.6015H238.627Z" fill="white"/>
<path d="M260.768 64.6015C258.326 64.6015 256.11 64.0378 254.12 62.9057C252.14 61.764 250.56 60.2368 249.38 58.3195C248.209 56.3925 247.626 54.2101 247.626 51.7677C247.626 49.9563 248.021 48.2557 248.821 46.6611C249.63 45.0713 250.714 43.6935 252.078 42.5373C250.753 41.4197 249.707 40.0997 248.937 38.5677C248.175 37.0406 247.8 35.4267 247.8 33.731C247.8 31.3415 248.378 29.2121 249.534 27.3333C250.7 25.4449 252.256 23.9563 254.197 22.8627C256.134 21.7739 258.283 21.2247 260.633 21.2247H278.921V29.8962H262.252C261.467 29.8962 260.739 30.0841 260.075 30.4551C259.419 30.8308 258.89 31.3222 258.494 31.9388C258.109 32.5555 257.916 33.2829 257.916 34.1164C257.916 34.9016 258.109 35.6146 258.494 36.2553C258.89 36.9009 259.419 37.3922 260.075 37.7391C260.739 38.086 261.467 38.2594 262.252 38.2594H276.82V46.9309H262.56C261.684 46.9309 260.894 47.1429 260.19 47.5668C259.497 47.9811 258.943 48.5207 258.533 49.1855C258.119 49.8407 257.916 50.6018 257.916 51.4593C257.916 52.2976 258.119 53.0539 258.533 53.7332C258.943 54.4173 259.497 54.9424 260.19 55.3133C260.894 55.6891 261.684 55.8722 262.56 55.8722H278.921V64.6015H260.768Z" fill="white"/>
<path d="M284.625 64.6015V21.2247H304.453C307.392 21.2247 310.071 21.8703 312.489 23.1517C314.902 24.4235 316.825 26.1964 318.251 28.4702C319.677 30.7441 320.39 33.3745 320.39 36.3517C320.39 39.1169 319.725 41.6027 318.405 43.8092C317.08 46.0204 315.346 47.8077 313.202 49.1662L316.67 55.0628C316.873 55.3471 317.114 55.5735 317.383 55.7373C317.653 55.9059 318.01 55.9878 318.463 55.9878H322.317V64.6015H316.227C314.377 64.6015 312.686 64.1583 311.159 63.2718C309.627 62.3854 308.428 61.2196 307.556 59.7647L302.912 51.5171C302.613 51.5171 302.314 51.5171 302.006 51.5171C301.698 51.5171 301.375 51.5171 301.043 51.5171H295.03V64.6015H284.625ZM295.03 42.9035H303.278C304.473 42.9035 305.581 42.6481 306.612 42.1327C307.652 41.622 308.471 40.8801 309.078 39.9166C309.68 38.9435 309.984 37.7728 309.984 36.4095C309.984 35.0509 309.666 33.8803 309.04 32.9023C308.423 31.9292 307.604 31.1825 306.592 30.667C305.576 30.1564 304.473 29.8962 303.278 29.8962H295.03V42.9035Z" fill="white"/>
<path d="M346.173 65.218C343.523 65.218 341.201 64.6351 339.197 63.4645C337.193 62.2842 335.618 60.7041 334.476 58.7241C333.344 56.7344 332.78 54.5184 332.78 52.0759V30.5128H321.006V21.8413H354.902V30.5128H343.205V53.0009C343.205 53.9547 343.533 54.7833 344.188 55.4867C344.843 56.1949 345.672 56.5466 346.674 56.5466H350.085V65.218H346.173Z" fill="white"/>
</g>
<path d="M9.80908 5C9.80908 2.23858 12.0477 0 14.8091 0H38.5957C41.3571 0 43.5957 2.23858 43.5957 5V23.6143H9.80908V5Z" fill="white"/>
<path d="M9.80908 65.0303H43.5957V96.0922L26.7024 80.4704L9.80908 96.0922V65.0303Z" fill="white"/>
<path d="M26.7021 17.8015C41.4494 17.8015 53.4042 29.7565 53.4043 44.5037C53.4043 59.251 41.4494 71.2058 26.7021 71.2058C11.9549 71.2057 0 59.2509 0 44.5037C0.000108234 29.7565 11.955 17.8016 26.7021 17.8015ZM26.5205 25.7937C16.0871 25.7937 7.62903 34.252 7.62891 44.6853C7.62891 55.1187 16.0871 63.5769 26.5205 63.5769C36.954 63.5769 45.4121 55.1188 45.4121 44.6853C45.412 34.2519 36.9539 25.7937 26.5205 25.7937Z" fill="white"/>
</svg>
