<svg width="49" height="49" viewBox="0 0 49 49" fill="none" xmlns="http://www.w3.org/2000/svg">
<path d="M37 47L12 46.9995M37 47L39.0077 46.9995C41.8025 46.9995 43.2 46.9995 44.2685 46.4551C45.2093 45.9757 45.9762 45.2104 46.4556 44.2696C47 43.2011 47 41.8021 47 39.0073V17.5487C47 16.4267 47 15.8629 46.8804 15.3275C46.7736 14.8499 46.5981 14.3912 46.3579 13.9647C46.0915 13.4917 45.7176 13.0763 44.9823 12.2593L38.0942 4.606C37.2422 3.65933 36.8104 3.17951 36.292 2.83495C35.8256 2.525 35.3106 2.29646 34.7682 2.15717C34.1563 2 33.4995 2 32.1876 2H10.0005C7.20023 2 5.79905 2 4.72949 2.54496C3.78868 3.02432 3.02433 3.78866 2.54497 4.72946C2 5.79901 2 7.20017 2 10.0004V39.0001C2 41.8003 2 43.1985 2.54497 44.268C3.02433 45.2088 3.78868 45.9757 4.72949 46.4551C5.798 46.9995 7.19749 46.9995 9.99228 46.9995H12M37 47V37.4919C37 34.6971 37 33.2977 36.4556 32.2292C35.9762 31.2884 35.2093 30.524 34.2685 30.0447C33.1989 29.4997 31.8008 29.4997 29.0005 29.4997H20.0005C17.2002 29.4997 15.7991 29.4997 14.7295 30.0447C13.7887 30.524 13.0243 31.2884 12.545 32.2292C12 33.2987 12 34.6999 12 37.5001V46.9995M32 11.9999H17" stroke="white" stroke-width="4" stroke-linecap="round" stroke-linejoin="round"/>
</svg>
