<svg width="42" height="42" viewBox="0 0 42 42" fill="none" xmlns="http://www.w3.org/2000/svg">
<path d="M18.3123 23.9403L28.3489 13.9036M38.6159 7.77833L30.144 35.3124C29.3847 37.78 29.0048 39.0143 28.35 39.4235C27.782 39.7784 27.0788 39.8377 26.4602 39.581C25.7469 39.2851 25.1679 38.1292 24.013 35.8193L18.647 25.0872C18.4637 24.7206 18.372 24.5381 18.2496 24.3793C18.141 24.2384 18.0156 24.1114 17.8747 24.0028C17.7194 23.8831 17.54 23.7934 17.1898 23.6183L6.43308 18.2399C4.12322 17.085 2.96819 16.5069 2.67222 15.7936C2.41554 15.175 2.47407 14.4711 2.82896 13.9031C3.23818 13.2482 4.47243 12.8677 6.94073 12.1082L34.4745 3.63618C36.415 3.0391 37.3856 2.74079 38.0411 2.98142C38.612 3.19102 39.062 3.64067 39.2716 4.21159C39.5121 4.86672 39.2136 5.83688 38.6172 7.77546L38.6159 7.77833Z" stroke="white" stroke-width="4" stroke-linecap="round" stroke-linejoin="round"/>
</svg>
